<svg width="164" height="36" viewBox="0 0 164 36" fill="none" xmlns="http://www.w3.org/2000/svg">
<path d="M125 0V36H164V0H125ZM138 28.5H133.125V12H138V28.5ZM135.562 10.098C133.993 10.098 132.719 8.913 132.719 7.452C132.719 5.991 133.993 4.806 135.562 4.806C137.132 4.806 138.406 5.991 138.406 7.452C138.406 8.913 137.134 10.098 135.562 10.098ZM157.5 28.5H152.625V20.094C152.625 15.042 146.125 15.4245 146.125 20.094V28.5H141.25V12H146.125V14.6475C148.395 10.7685 157.5 10.482 157.5 18.3615V28.5Z" fill="#0665A9"/>
<path d="M2.822 9.2H8.33V28.512H20.264V33H2.822V9.2ZM22.9675 14.708H28.2715V33H22.9675V14.708ZM25.6195 12.158C24.6449 12.158 23.8515 11.8747 23.2395 11.308C22.6275 10.7413 22.3215 10.0387 22.3215 9.2C22.3215 8.36133 22.6275 7.65867 23.2395 7.092C23.8515 6.52533 24.6449 6.242 25.6195 6.242C26.5942 6.242 27.3875 6.514 27.9995 7.058C28.6115 7.602 28.9175 8.282 28.9175 9.098C28.9175 9.982 28.6115 10.7187 27.9995 11.308C27.3875 11.8747 26.5942 12.158 25.6195 12.158ZM44.3121 14.436C46.5788 14.436 48.4034 15.116 49.7861 16.476C51.1914 17.836 51.8941 19.8533 51.8941 22.528V33H46.5901V23.344C46.5901 21.8933 46.2728 20.8167 45.6381 20.114C45.0034 19.3887 44.0854 19.026 42.8841 19.026C41.5468 19.026 40.4814 19.4453 39.6881 20.284C38.8948 21.1 38.4981 22.324 38.4981 23.956V33H33.1941V14.708H38.2601V16.85C38.9628 16.0793 39.8354 15.49 40.8781 15.082C41.9208 14.6513 43.0654 14.436 44.3121 14.436ZM64.5559 25.826L62.0059 28.342V33H56.7019V7.772H62.0059V22.052L69.7579 14.708H76.0819L68.4659 22.46L76.7619 33H70.3359L64.5559 25.826ZM96.2683 23.922C96.2683 23.99 96.2343 24.466 96.1663 25.35H82.3283C82.5777 26.4833 83.167 27.3787 84.0963 28.036C85.0257 28.6933 86.1817 29.022 87.5643 29.022C88.5163 29.022 89.355 28.886 90.0803 28.614C90.8283 28.3193 91.5197 27.866 92.1543 27.254L94.9763 30.314C93.2537 32.286 90.7377 33.272 87.4283 33.272C85.3657 33.272 83.541 32.8753 81.9543 32.082C80.3677 31.266 79.1437 30.144 78.2823 28.716C77.421 27.288 76.9903 25.6673 76.9903 23.854C76.9903 22.0633 77.4097 20.454 78.2483 19.026C79.1097 17.5753 80.277 16.4533 81.7503 15.66C83.2463 14.844 84.9123 14.436 86.7483 14.436C88.539 14.436 90.1597 14.8213 91.6103 15.592C93.061 16.3627 94.1943 17.4733 95.0103 18.924C95.849 20.352 96.2683 22.018 96.2683 23.922ZM86.7823 18.448C85.581 18.448 84.5723 18.788 83.7563 19.468C82.9403 20.148 82.4417 21.0773 82.2603 22.256H91.2703C91.089 21.1 90.5903 20.182 89.7743 19.502C88.9583 18.7993 87.961 18.448 86.7823 18.448ZM118.432 7.772V33H113.366V30.892C112.051 32.4787 110.147 33.272 107.654 33.272C105.931 33.272 104.367 32.8867 102.962 32.116C101.579 31.3453 100.491 30.246 99.6976 28.818C98.9042 27.39 98.5076 25.7353 98.5076 23.854C98.5076 21.9727 98.9042 20.318 99.6976 18.89C100.491 17.462 101.579 16.3627 102.962 15.592C104.367 14.8213 105.931 14.436 107.654 14.436C109.988 14.436 111.813 15.1727 113.128 16.646V7.772H118.432ZM108.572 28.92C109.909 28.92 111.02 28.4667 111.904 27.56C112.788 26.6307 113.23 25.3953 113.23 23.854C113.23 22.3127 112.788 21.0887 111.904 20.182C111.02 19.2527 109.909 18.788 108.572 18.788C107.212 18.788 106.09 19.2527 105.206 20.182C104.322 21.0887 103.88 22.3127 103.88 23.854C103.88 25.3953 104.322 26.6307 105.206 27.56C106.09 28.4667 107.212 28.92 108.572 28.92Z" fill="white"/>
</svg>
