<svg width="158" height="37" viewBox="0 0 158 37" fill="none" xmlns="http://www.w3.org/2000/svg">
<g clip-path="url(#clip0_69_7)">
<path d="M117 37H124V18.4545L114 10.2727V33.7272C114 35.5382 115.345 37 117 37Z" fill="#4285F4"/>
<path d="M148 37H155C156.66 37 158 35.5327 158 33.7272V10.2727L148 18.4545" fill="#34A853"/>
<path d="M148 4.27273V18.4546L158 10.2727V5.9091C158 1.86183 153.765 -0.445448 150.8 1.98182" fill="#FBBC04"/>
<path d="M124 18.4545V4.27271L136 14.0909L148 4.27271V18.4545L136 28.2727" fill="#EA4335"/>
<path d="M114 5.9091V10.2727L124 18.4546V4.27273L121.2 1.98182C118.23 -0.445448 114 1.86183 114 5.9091" fill="#C5221F"/>
</g>
<path d="M20.016 22.004H25.344V32.228C23.976 33.26 22.392 34.052 20.592 34.604C18.792 35.156 16.98 35.432 15.156 35.432C12.54 35.432 10.188 34.88 8.1 33.776C6.012 32.648 4.368 31.1 3.168 29.132C1.992 27.14 1.404 24.896 1.404 22.4C1.404 19.904 1.992 17.672 3.168 15.704C4.368 13.712 6.024 12.164 8.136 11.06C10.248 9.932 12.624 9.368 15.264 9.368C17.472 9.368 19.476 9.74 21.276 10.484C23.076 11.228 24.588 12.308 25.812 13.724L22.068 17.18C20.268 15.284 18.096 14.336 15.552 14.336C13.944 14.336 12.516 14.672 11.268 15.344C10.02 16.016 9.048 16.964 8.352 18.188C7.656 19.412 7.308 20.816 7.308 22.4C7.308 23.96 7.656 25.352 8.352 26.576C9.048 27.8 10.008 28.76 11.232 29.456C12.48 30.128 13.896 30.464 15.48 30.464C17.16 30.464 18.672 30.104 20.016 29.384V22.004ZM55.1694 15.344C57.5934 15.344 59.5134 16.064 60.9294 17.504C62.3694 18.92 63.0894 21.056 63.0894 23.912V35H57.4734V24.776C57.4734 23.24 57.1494 22.1 56.5014 21.356C55.8774 20.588 54.9774 20.204 53.8014 20.204C52.4814 20.204 51.4374 20.636 50.6694 21.5C49.9014 22.34 49.5174 23.6 49.5174 25.28V35H43.9014V24.776C43.9014 21.728 42.6774 20.204 40.2294 20.204C38.9334 20.204 37.9014 20.636 37.1334 21.5C36.3654 22.34 35.9814 23.6 35.9814 25.28V35H30.3654V15.632H35.7294V17.864C36.4494 17.048 37.3254 16.424 38.3574 15.992C39.4134 15.56 40.5654 15.344 41.8134 15.344C43.1814 15.344 44.4174 15.62 45.5214 16.172C46.6254 16.7 47.5134 17.48 48.1854 18.512C48.9774 17.504 49.9734 16.724 51.1734 16.172C52.3974 15.62 53.7294 15.344 55.1694 15.344ZM75.9353 15.344C78.9353 15.344 81.2393 16.064 82.8473 17.504C84.4553 18.92 85.2593 21.068 85.2593 23.948V35H80.0033V32.588C78.9473 34.388 76.9793 35.288 74.0993 35.288C72.6113 35.288 71.3153 35.036 70.2113 34.532C69.1313 34.028 68.3033 33.332 67.7273 32.444C67.1513 31.556 66.8633 30.548 66.8633 29.42C66.8633 27.62 67.5353 26.204 68.8793 25.172C70.2473 24.14 72.3473 23.624 75.1793 23.624H79.6433C79.6433 22.4 79.2713 21.464 78.5273 20.816C77.7833 20.144 76.6673 19.808 75.1793 19.808C74.1473 19.808 73.1273 19.976 72.1193 20.312C71.1353 20.624 70.2953 21.056 69.5993 21.608L67.5833 17.684C68.6393 16.94 69.8993 16.364 71.3633 15.956C72.8513 15.548 74.3753 15.344 75.9353 15.344ZM75.5033 31.508C76.4633 31.508 77.3153 31.292 78.0593 30.86C78.8033 30.404 79.3313 29.744 79.6433 28.88V26.9H75.7913C73.4873 26.9 72.3353 27.656 72.3353 29.168C72.3353 29.888 72.6113 30.464 73.1633 30.896C73.7393 31.304 74.5193 31.508 75.5033 31.508ZM90.342 15.632H95.958V35H90.342V15.632ZM93.15 12.932C92.118 12.932 91.278 12.632 90.63 12.032C89.982 11.432 89.658 10.688 89.658 9.8C89.658 8.912 89.982 8.168 90.63 7.568C91.278 6.968 92.118 6.668 93.15 6.668C94.182 6.668 95.022 6.956 95.67 7.532C96.318 8.108 96.642 8.828 96.642 9.692C96.642 10.628 96.318 11.408 95.67 12.032C95.022 12.632 94.182 12.932 93.15 12.932ZM101.17 8.288H106.786V35H101.17V8.288Z" fill="white"/>
<defs>
<clipPath id="clip0_69_7">
<rect width="44" height="36" fill="white" transform="translate(114 1)"/>
</clipPath>
</defs>
</svg>
