<svg width="169" height="36" viewBox="0 0 169 36" fill="none" xmlns="http://www.w3.org/2000/svg">
<path d="M18.904 20.726H23.936V30.382C22.644 31.3567 21.148 32.1047 19.448 32.626C17.748 33.1473 16.0367 33.408 14.314 33.408C11.8433 33.408 9.622 32.8867 7.65 31.844C5.678 30.7787 4.12533 29.3167 2.992 27.458C1.88133 25.5767 1.326 23.4573 1.326 21.1C1.326 18.7427 1.88133 16.6347 2.992 14.776C4.12533 12.8947 5.68933 11.4327 7.684 10.39C9.67867 9.32467 11.9227 8.792 14.416 8.792C16.5013 8.792 18.394 9.14333 20.094 9.846C21.794 10.5487 23.222 11.5687 24.378 12.906L20.842 16.17C19.142 14.3793 17.0907 13.484 14.688 13.484C13.1693 13.484 11.8207 13.8013 10.642 14.436C9.46333 15.0707 8.54533 15.966 7.888 17.122C7.23067 18.278 6.902 19.604 6.902 21.1C6.902 22.5733 7.23067 23.888 7.888 25.044C8.54533 26.2 9.452 27.1067 10.608 27.764C11.7867 28.3987 13.124 28.716 14.62 28.716C16.2067 28.716 17.6347 28.376 18.904 27.696V20.726ZM28.6785 14.708H33.9825V33H28.6785V14.708ZM31.3305 12.158C30.3558 12.158 29.5625 11.8747 28.9505 11.308C28.3385 10.7413 28.0325 10.0387 28.0325 9.2C28.0325 8.36133 28.3385 7.65867 28.9505 7.092C29.5625 6.52533 30.3558 6.242 31.3305 6.242C32.3051 6.242 33.0985 6.514 33.7105 7.058C34.3225 7.602 34.6285 8.282 34.6285 9.098C34.6285 9.982 34.3225 10.7187 33.7105 11.308C33.0985 11.8747 32.3051 12.158 31.3305 12.158ZM50.703 32.116C50.1817 32.5013 49.5357 32.796 48.765 33C48.017 33.1813 47.2237 33.272 46.385 33.272C44.209 33.272 42.5204 32.7167 41.319 31.606C40.1404 30.4953 39.551 28.8633 39.551 26.71V19.196H36.729V15.116H39.551V10.662H44.855V15.116H49.411V19.196H44.855V26.642C44.855 27.4127 45.0477 28.0133 45.433 28.444C45.841 28.852 46.4077 29.056 47.133 29.056C47.9717 29.056 48.6857 28.8293 49.275 28.376L50.703 32.116ZM75.8824 9.2V33H70.3744V23.242H59.5624V33H54.0544V9.2H59.5624V18.584H70.3744V9.2H75.8824ZM99.5674 14.708V33H94.5354V30.824C93.8327 31.6173 92.9941 32.2293 92.0194 32.66C91.0447 33.068 89.9907 33.272 88.8574 33.272C86.4547 33.272 84.5507 32.5807 83.1454 31.198C81.7401 29.8153 81.0374 27.764 81.0374 25.044V14.708H86.3414V24.262C86.3414 27.2087 87.5767 28.682 90.0474 28.682C91.3167 28.682 92.3367 28.274 93.1074 27.458C93.8781 26.6193 94.2634 25.384 94.2634 23.752V14.708H99.5674ZM115.293 14.436C116.993 14.436 118.535 14.8327 119.917 15.626C121.323 16.3967 122.422 17.496 123.215 18.924C124.009 20.3293 124.405 21.9727 124.405 23.854C124.405 25.7353 124.009 27.39 123.215 28.818C122.422 30.2233 121.323 31.3227 119.917 32.116C118.535 32.8867 116.993 33.272 115.293 33.272C112.777 33.272 110.862 32.4787 109.547 30.892V33H104.481V7.772H109.785V16.646C111.123 15.1727 112.959 14.436 115.293 14.436ZM114.375 28.92C115.735 28.92 116.846 28.4667 117.707 27.56C118.591 26.6307 119.033 25.3953 119.033 23.854C119.033 22.3127 118.591 21.0887 117.707 20.182C116.846 19.2527 115.735 18.788 114.375 18.788C113.015 18.788 111.893 19.2527 111.009 20.182C110.148 21.0887 109.717 22.3127 109.717 23.854C109.717 25.3953 110.148 26.6307 111.009 27.56C111.893 28.4667 113.015 28.92 114.375 28.92Z" fill="white"/>
<path d="M130 0V36H169V0H130ZM153.618 29.385C152.958 29.502 152.75 29.1285 152.75 28.809V25.5165C152.75 24.396 152.324 23.667 151.856 23.295C154.752 22.998 157.794 21.9825 157.794 17.3745C157.794 16.0635 157.289 14.9925 156.455 14.154C156.59 13.851 157.035 12.63 156.327 10.9785C156.327 10.9785 155.236 10.656 152.755 12.2085C151.717 11.9385 150.605 11.808 149.5 11.802C148.395 11.8065 147.283 11.9385 146.245 12.2055C143.762 10.653 142.67 10.9755 142.67 10.9755C141.965 12.6285 142.41 13.848 142.545 14.1525C141.713 14.9925 141.206 16.062 141.206 17.373C141.206 21.969 144.24 22.9995 147.129 23.304C146.757 23.604 146.421 24.132 146.304 24.909C145.561 25.215 143.681 25.7445 142.521 23.91C142.521 23.91 141.833 22.758 140.527 22.6725C140.527 22.6725 139.259 22.6575 140.437 23.403C140.437 23.403 141.29 23.772 141.882 25.158C141.882 25.158 142.634 27.3 146.25 26.574V28.8075C146.25 29.124 146.04 29.496 145.392 29.385C140.225 27.7995 136.5 23.301 136.5 18C136.5 11.3715 142.321 6 149.5 6C156.679 6 162.5 11.3715 162.5 18C162.5 23.2995 158.78 27.7965 153.618 29.385V29.385Z" fill="#848484"/>
</svg>
