<svg width="163" height="41" viewBox="0 0 163 41" fill="none" xmlns="http://www.w3.org/2000/svg">
<path d="M60.268 35.432C58.276 35.432 56.344 35.168 54.472 34.64C52.624 34.088 51.136 33.38 50.008 32.516L51.988 28.124C53.068 28.916 54.352 29.552 55.84 30.032C57.328 30.512 58.816 30.752 60.304 30.752C61.96 30.752 63.184 30.512 63.976 30.032C64.768 29.528 65.164 28.868 65.164 28.052C65.164 27.452 64.924 26.96 64.444 26.576C63.988 26.168 63.388 25.844 62.644 25.604C61.924 25.364 60.94 25.1 59.692 24.812C57.772 24.356 56.2 23.9 54.976 23.444C53.752 22.988 52.696 22.256 51.808 21.248C50.944 20.24 50.512 18.896 50.512 17.216C50.512 15.752 50.908 14.432 51.7 13.256C52.492 12.056 53.68 11.108 55.264 10.412C56.872 9.716 58.828 9.368 61.132 9.368C62.74 9.368 64.312 9.56 65.848 9.944C67.384 10.328 68.728 10.88 69.88 11.6L68.08 16.028C65.752 14.708 63.424 14.048 61.096 14.048C59.464 14.048 58.252 14.312 57.46 14.84C56.692 15.368 56.308 16.064 56.308 16.928C56.308 17.792 56.752 18.44 57.64 18.872C58.552 19.28 59.932 19.688 61.78 20.096C63.7 20.552 65.272 21.008 66.496 21.464C67.72 21.92 68.764 22.64 69.628 23.624C70.516 24.608 70.96 25.94 70.96 27.62C70.96 29.06 70.552 30.38 69.736 31.58C68.944 32.756 67.744 33.692 66.136 34.388C64.528 35.084 62.572 35.432 60.268 35.432ZM74.549 8.288H80.165V35H74.549V8.288ZM93.1892 15.344C96.1892 15.344 98.4932 16.064 100.101 17.504C101.709 18.92 102.513 21.068 102.513 23.948V35H97.2572V32.588C96.2012 34.388 94.2332 35.288 91.3532 35.288C89.8652 35.288 88.5692 35.036 87.4652 34.532C86.3852 34.028 85.5572 33.332 84.9812 32.444C84.4052 31.556 84.1172 30.548 84.1172 29.42C84.1172 27.62 84.7892 26.204 86.1332 25.172C87.5012 24.14 89.6012 23.624 92.4332 23.624H96.8972C96.8972 22.4 96.5252 21.464 95.7812 20.816C95.0372 20.144 93.9212 19.808 92.4332 19.808C91.4012 19.808 90.3812 19.976 89.3732 20.312C88.3892 20.624 87.5492 21.056 86.8532 21.608L84.8372 17.684C85.8932 16.94 87.1532 16.364 88.6172 15.956C90.1052 15.548 91.6292 15.344 93.1892 15.344ZM92.7572 31.508C93.7172 31.508 94.5692 31.292 95.3132 30.86C96.0572 30.404 96.5852 29.744 96.8972 28.88V26.9H93.0452C90.7412 26.9 89.5892 27.656 89.5892 29.168C89.5892 29.888 89.8652 30.464 90.4172 30.896C90.9932 31.304 91.7732 31.508 92.7572 31.508ZM117.167 35.288C115.103 35.288 113.243 34.868 111.587 34.028C109.955 33.164 108.671 31.976 107.735 30.464C106.823 28.952 106.367 27.236 106.367 25.316C106.367 23.396 106.823 21.68 107.735 20.168C108.671 18.656 109.955 17.48 111.587 16.64C113.243 15.776 115.103 15.344 117.167 15.344C119.207 15.344 120.983 15.776 122.495 16.64C124.031 17.48 125.147 18.692 125.843 20.276L121.487 22.616C120.479 20.84 119.027 19.952 117.131 19.952C115.667 19.952 114.455 20.432 113.495 21.392C112.535 22.352 112.055 23.66 112.055 25.316C112.055 26.972 112.535 28.28 113.495 29.24C114.455 30.2 115.667 30.68 117.131 30.68C119.051 30.68 120.503 29.792 121.487 28.016L125.843 30.392C125.147 31.928 124.031 33.128 122.495 33.992C120.983 34.856 119.207 35.288 117.167 35.288ZM137.252 27.404L134.552 30.068V35H128.936V8.288H134.552V23.408L142.76 15.632H149.456L141.392 23.84L150.176 35H143.372L137.252 27.404Z" fill="white"/>
<path d="M9.06524 26.6546C9.06524 28.9213 7.04694 30.7534 4.54972 30.7534C2.05251 30.7534 0.0342102 28.9213 0.0342102 26.6546C0.0342102 24.3879 2.05251 22.5559 4.54972 22.5559H9.06524V26.6546ZM11.323 26.6546C11.323 24.3879 13.3413 22.5559 15.8385 22.5559C18.3357 22.5559 20.354 24.3879 20.354 26.6546V36.9014C20.354 39.1682 18.3357 41.0002 15.8385 41.0002C13.3413 41.0002 11.323 39.1682 11.323 36.9014V26.6546Z" fill="#E01E5A"/>
<path d="M15.8385 10.1974C13.3413 10.1974 11.323 8.36544 11.323 6.09872C11.323 3.832 13.3413 2 15.8385 2C18.3357 2 20.354 3.832 20.354 6.09872V10.1974H15.8385ZM15.8385 12.2779C18.3357 12.2779 20.354 14.1099 20.354 16.3766C20.354 18.6433 18.3357 20.4753 15.8385 20.4753H4.51551C2.0183 20.4753 0 18.6433 0 16.3766C0 14.1099 2.0183 12.2779 4.51551 12.2779H15.8385Z" fill="#36C5F0"/>
<path d="M33.9348 16.3766C33.9348 14.1099 35.9531 12.2779 38.4503 12.2779C40.9475 12.2779 42.9658 14.1099 42.9658 16.3766C42.9658 18.6433 40.9475 20.4753 38.4503 20.4753H33.9348V16.3766ZM31.677 16.3766C31.677 18.6433 29.6587 20.4753 27.1615 20.4753C24.6643 20.4753 22.646 18.6433 22.646 16.3766V6.09872C22.646 3.832 24.6643 2 27.1615 2C29.6587 2 31.677 3.832 31.677 6.09872V16.3766V16.3766Z" fill="#2EB67D"/>
<path d="M27.1615 32.8027C29.6587 32.8027 31.677 34.6347 31.677 36.9014C31.677 39.1682 29.6587 41.0002 27.1615 41.0002C24.6643 41.0002 22.646 39.1682 22.646 36.9014V32.8027H27.1615ZM27.1615 30.7534C24.6643 30.7534 22.646 28.9213 22.646 26.6546C22.646 24.3879 24.6643 22.5559 27.1615 22.5559H38.4845C40.9817 22.5559 43 24.3879 43 26.6546C43 28.9213 40.9817 30.7534 38.4845 30.7534H27.1615Z" fill="#ECB22E"/>
</svg>
