<svg width="20" height="20" viewBox="0 0 20 20" fill="none" xmlns="http://www.w3.org/2000/svg">
<path d="M4.54016 19.1175V6.21896H0.252944V19.1175H4.54016ZM2.3971 4.45682C3.89213 4.45682 4.82271 3.46637 4.82271 2.22862C4.79486 0.962967 3.89219 0 2.42548 0C0.958991 0 0 0.962987 0 2.22862C0 3.46642 0.930353 4.45682 2.36912 4.45682H2.39697H2.3971ZM6.91312 19.1175H11.2003V11.9143C11.2003 11.5288 11.2282 11.1437 11.3414 10.8681C11.6513 10.0979 12.3567 9.30019 13.5411 9.30019C15.0924 9.30019 15.7131 10.483 15.7131 12.217V19.1174H20V11.7215C20 7.75958 17.8849 5.91614 15.0642 5.91614C12.7514 5.91614 11.7359 7.2089 11.1718 8.0894H11.2004V6.21869H6.91321C6.96948 7.42902 6.91321 19.1173 6.91321 19.1173L6.91312 19.1175Z" fill="#D6D6D6"/>
</svg>
